<svg width="144" height="144" viewBox="0 0 144 144" fill="none" xmlns="http://www.w3.org/2000/svg">
  <path
    d="M107.925 111.012C106.455 102.019 85.6706 86.4831 78.0426 82.1442C76.363 81.1645 74.1936 80.6396 71.9892 80.6396C69.7848 80.6396 67.7203 81.1645 66.0408 82.1442C60.7222 85.2584 43.2968 97.4352 37.7333 106.778C36.8935 108.212 36.2987 109.612 36.0887 110.872C35.8088 112.586 36.1937 114.056 37.2084 115.21C38.0482 116.155 39.2029 116.645 40.6375 116.645C44.5565 116.645 50.225 112.866 56.2434 108.842C62.1218 104.888 68.2452 100.829 72.0242 100.829C72.829 100.829 73.7387 101.039 74.6835 101.354C74.7185 101.354 74.7535 101.354 74.7535 101.389C75.9431 101.809 77.2028 102.404 78.6024 103.174C78.7424 103.244 78.8824 103.349 79.0223 103.419C79.5822 103.734 80.142 104.048 80.7019 104.398C82.8363 105.693 85.0407 107.198 87.2451 108.667C90.2893 110.732 93.2635 112.726 95.9578 114.231C98.6871 115.735 101.136 116.68 103.201 116.68C104.706 116.68 105.93 116.155 106.84 115.14C107.82 114.091 108.17 112.691 107.925 111.012Z"
    fill="url(#paint0_linear_105_67)" />
  <path opacity="0.4"
    d="M74.6835 101.389C73.7037 101.039 72.794 100.864 72.0242 100.864C68.2452 100.864 62.1568 104.923 56.2434 108.877C50.225 112.866 44.5565 116.68 40.6375 116.68C39.2029 116.68 38.0482 116.19 37.2084 115.245C36.1937 114.091 35.8088 112.621 36.0887 110.907C36.2987 109.647 36.8585 108.247 37.7333 106.813C50.9598 94.321 66.3907 97.9251 74.6835 101.389Z"
    fill="#1D1D1B" />
  <path
    d="M143.849 87.9236C140.91 69.9383 99.3411 38.8666 84.0852 30.1889C80.7261 28.2294 76.3872 27.1797 71.9784 27.1797C67.5696 27.1797 63.4407 28.2294 60.0816 30.1889C49.4444 36.4172 14.5936 60.7708 3.46658 79.4558C1.78703 82.325 0.597342 85.1243 0.177454 87.6436C-0.382398 91.0727 0.387398 94.0119 2.41686 96.3213C4.09641 98.2108 6.4058 99.1906 9.27504 99.1906C17.113 99.1906 28.4499 91.6326 40.4868 83.5847C52.2436 75.6768 64.4904 67.559 72.0484 67.559C73.6579 67.559 75.4775 67.9789 77.367 68.6087C77.4369 68.6087 77.5069 68.6087 77.5069 68.6787C79.8863 69.5184 82.4056 70.7081 85.2049 72.2477C85.4848 72.3877 85.7647 72.5976 86.0447 72.7376C87.1644 73.3674 88.2841 73.9973 89.4038 74.6971C93.6726 77.2864 98.0815 80.2956 102.49 83.2348C108.579 87.3637 114.527 91.3526 119.916 94.3619C125.374 97.3711 130.273 99.2605 134.402 99.2605C137.411 99.2605 139.86 98.2108 141.68 96.1814C143.639 94.0819 144.339 91.2827 143.849 87.9236Z"
    fill="url(#paint1_linear_105_67)" />
  <path opacity="0.4"
    d="M77.367 68.6787C75.4075 67.9788 73.588 67.6289 72.0484 67.6289C64.4904 67.6289 52.3136 75.7468 40.4867 83.6547C28.4499 91.6326 17.113 99.2605 9.27504 99.2605C6.4058 99.2605 4.09641 98.2808 2.41686 96.3913C0.387398 94.0819 -0.382398 91.1427 0.177454 87.7136C0.597342 85.1943 1.71704 82.395 3.46658 79.5258C29.9196 54.5424 60.7814 61.7505 77.367 68.6787Z"
    fill="#1D1D1B" />
  <defs>
    <linearGradient id="paint0_linear_105_67" x1="185.94" y1="163.26" x2="163.664" y2="197.175"
      gradientUnits="userSpaceOnUse">
      <stop offset="0.0137585" stop-color="#FFC61D" />
      <stop offset="1" stop-color="#EF6C00" />
    </linearGradient>
    <linearGradient id="paint1_linear_105_67" x1="299.88" y1="192.42" x2="255.328" y2="260.251"
      gradientUnits="userSpaceOnUse">
      <stop offset="0.0137585" stop-color="#FF9800" />
      <stop offset="1" stop-color="#EF6C00" />
    </linearGradient>
  </defs>
</svg>