<svg width="256" height="256" viewBox="0 0 256 256" fill="none" xmlns="http://www.w3.org/2000/svg">
  <path
    d="M191.866 197.355C189.253 181.368 152.303 153.749 138.742 146.035C135.757 144.293 131.9 143.36 127.981 143.36C124.062 143.36 120.392 144.293 117.406 146.035C107.951 151.572 76.9721 173.219 67.0814 189.828C65.5885 192.378 64.531 194.867 64.1577 197.106C63.6601 200.154 64.3444 202.767 66.1483 204.82C67.6413 206.499 69.694 207.37 72.2445 207.37C79.2115 207.37 89.2888 200.652 99.9882 193.498C110.439 186.469 121.325 179.253 128.043 179.253C129.474 179.253 131.091 179.626 132.771 180.186C132.833 180.186 132.895 180.186 132.895 180.248C135.01 180.995 137.249 182.052 139.738 183.421C139.986 183.545 140.235 183.732 140.484 183.856C141.479 184.416 142.475 184.976 143.47 185.598C147.265 187.9 151.184 190.574 155.102 193.187C160.514 196.857 165.802 200.403 170.592 203.078C175.444 205.753 179.798 207.432 183.468 207.432C186.143 207.432 188.32 206.499 189.938 204.695C191.679 202.829 192.302 200.341 191.866 197.355Z"
    fill="url(#paint0_linear_105_75)" />
  <path opacity="0.4"
    d="M132.771 180.248C131.029 179.626 129.412 179.315 128.043 179.315C121.325 179.315 110.501 186.531 99.9882 193.56C89.2888 200.651 79.2115 207.432 72.2445 207.432C69.694 207.432 67.6413 206.561 66.1483 204.881C64.3444 202.829 63.6601 200.216 64.1577 197.168C64.531 194.929 65.5263 192.44 67.0814 189.89C90.5952 167.682 118.028 174.09 132.771 180.248Z"
    fill="#1D1D1B" />
  <path
    d="M255.732 156.309C250.507 124.336 176.606 69.097 149.485 53.67C143.513 50.1865 135.8 48.3203 127.962 48.3203C120.124 48.3203 112.783 50.1865 106.812 53.67C87.9011 64.7426 25.9442 108.038 6.16281 141.256C3.17694 146.357 1.06194 151.333 0.315473 155.812C-0.679818 161.908 0.688708 167.133 4.29664 171.239C7.28251 174.598 11.3881 176.34 16.489 176.34C30.423 176.34 50.5777 162.903 71.9765 148.596C92.8776 134.537 114.65 120.106 128.086 120.106C130.947 120.106 134.182 120.852 137.541 121.972C137.666 121.972 137.79 121.972 137.79 122.096C142.02 123.589 146.499 125.704 151.475 128.441C151.973 128.69 152.471 129.063 152.968 129.312C154.959 130.432 156.949 131.552 158.94 132.796C166.529 137.399 174.367 142.749 182.205 147.974C193.029 155.314 203.604 162.406 213.183 167.755C222.888 173.105 231.596 176.464 238.937 176.464C244.286 176.464 248.641 174.598 251.875 170.99C255.359 167.258 256.603 162.281 255.732 156.309Z"
    fill="url(#paint1_linear_105_75)" />
  <path opacity="0.4"
    d="M137.541 122.096C134.058 120.851 130.823 120.229 128.086 120.229C114.65 120.229 93.002 134.661 71.9764 148.72C50.5777 162.903 30.423 176.463 16.489 176.463C11.3881 176.463 7.28251 174.722 4.29664 171.363C0.688707 167.257 -0.679818 162.032 0.315473 155.936C1.06194 151.457 3.05252 146.48 6.16281 141.379C53.1903 96.9645 108.056 109.779 137.541 122.096Z"
    fill="#1D1D1B" />
  <defs>
    <linearGradient id="paint0_linear_105_75" x1="330.56" y1="290.24" x2="290.958" y2="350.535"
      gradientUnits="userSpaceOnUse">
      <stop offset="0.0137585" stop-color="#FFC61D" />
      <stop offset="1" stop-color="#EF6C00" />
    </linearGradient>
    <linearGradient id="paint1_linear_105_75" x1="533.12" y1="342.08" x2="453.916" y2="462.669"
      gradientUnits="userSpaceOnUse">
      <stop offset="0.0137585" stop-color="#FF9800" />
      <stop offset="1" stop-color="#EF6C00" />
    </linearGradient>
  </defs>
</svg>