<svg width="512" height="512" viewBox="0 0 512 512" fill="none" xmlns="http://www.w3.org/2000/svg">
  <path
    d="M383.732 394.709C378.507 362.735 304.606 307.496 277.485 292.069C271.513 288.586 263.8 286.72 255.962 286.72C248.124 286.72 240.783 288.586 234.812 292.069C215.901 303.142 153.944 346.437 134.163 379.655C131.177 384.756 129.062 389.732 128.315 394.211C127.32 400.307 128.689 405.533 132.297 409.638C135.283 412.997 139.388 414.739 144.489 414.739C158.423 414.739 178.578 401.303 199.976 386.995C220.878 372.937 242.65 358.505 256.086 358.505C258.947 358.505 262.182 359.252 265.541 360.371C265.666 360.371 265.79 360.371 265.79 360.496C270.02 361.989 274.499 364.104 279.475 366.841C279.973 367.089 280.471 367.463 280.968 367.712C282.959 368.831 284.949 369.951 286.94 371.195C294.529 375.798 302.367 381.148 310.205 386.373C321.029 393.714 331.604 400.805 341.183 406.155C350.888 411.504 359.596 414.863 366.937 414.863C372.286 414.863 376.641 412.997 379.875 409.389C383.359 405.657 384.603 400.681 383.732 394.709Z"
    fill="url(#paint0_linear_105_91)" />
  <path opacity="0.4"
    d="M265.541 360.495C262.058 359.251 258.823 358.629 256.086 358.629C242.65 358.629 221.002 373.061 199.976 387.119C178.578 401.302 158.423 414.863 144.489 414.863C139.388 414.863 135.283 413.121 132.297 409.762C128.689 405.656 127.32 400.431 128.315 394.335C129.062 389.856 131.053 384.88 134.163 379.779C181.19 335.364 236.056 348.178 265.541 360.495Z"
    fill="#1D1D1B" />
  <path
    d="M511.464 312.618C501.014 248.67 353.213 138.193 298.97 107.339C287.026 100.372 271.599 96.6396 255.923 96.6396C240.247 96.6396 225.567 100.372 213.623 107.339C175.802 129.484 51.8885 216.075 12.3256 282.51C6.35387 292.712 2.12388 302.665 0.630946 311.623C-1.35964 323.815 1.37742 334.265 8.59328 342.477C14.565 349.195 22.7762 352.678 32.9779 352.678C60.8461 352.678 101.155 325.805 143.953 297.191C185.755 269.074 229.299 240.21 256.172 240.21C261.895 240.21 268.364 241.703 275.083 243.943C275.331 243.943 275.58 243.943 275.58 244.192C284.04 247.177 292.998 251.407 302.951 256.882C303.946 257.379 304.941 258.126 305.937 258.623C309.918 260.863 313.899 263.102 317.88 265.59C333.058 274.797 348.734 285.496 364.41 295.947C386.058 310.627 407.207 324.81 426.367 335.51C445.775 346.209 463.193 352.927 477.873 352.927C488.573 352.927 497.281 349.195 503.751 341.979C510.718 334.514 513.206 324.561 511.464 312.618Z"
    fill="url(#paint1_linear_105_91)" />
  <path opacity="0.4"
    d="M275.083 244.19C268.115 241.702 261.646 240.458 256.172 240.458C229.299 240.458 186.004 269.321 143.953 297.438C101.155 325.804 60.8461 352.926 32.9779 352.926C22.7762 352.926 14.565 349.442 8.59328 342.724C1.37741 334.513 -1.35964 324.062 0.630946 311.87C2.12388 302.912 6.10505 292.959 12.3256 282.758C106.381 193.928 216.112 219.557 275.083 244.19Z"
    fill="#1D1D1B" />
  <defs>
    <linearGradient id="paint0_linear_105_91" x1="661.12" y1="580.48" x2="581.916" y2="701.069"
      gradientUnits="userSpaceOnUse">
      <stop offset="0.0137585" stop-color="#FFC61D" />
      <stop offset="1" stop-color="#EF6C00" />
    </linearGradient>
    <linearGradient id="paint1_linear_105_91" x1="1066.24" y1="684.16" x2="907.831" y2="925.338"
      gradientUnits="userSpaceOnUse">
      <stop offset="0.0137585" stop-color="#FF9800" />
      <stop offset="1" stop-color="#EF6C00" />
    </linearGradient>
  </defs>
</svg>