<svg width="128" height="128" viewBox="0 0 128 128" fill="none" xmlns="http://www.w3.org/2000/svg">
  <path
    d="M95.933 98.677C94.6267 90.6835 76.1516 76.8739 69.3712 73.0171C67.8783 72.1462 65.9499 71.6797 63.9904 71.6797C62.0309 71.6797 60.1959 72.1462 58.7029 73.0171C53.9753 75.7853 38.4861 86.6091 33.5407 94.9135C32.7942 96.1887 32.2655 97.4328 32.0789 98.5526C31.83 100.077 32.1722 101.383 33.0742 102.409C33.8206 103.249 34.847 103.685 36.1222 103.685C39.6058 103.685 44.6444 100.325 49.9941 96.7486C55.2194 93.234 60.6624 89.626 64.0215 89.626C64.7369 89.626 65.5455 89.8127 66.3853 90.0926C66.4164 90.0926 66.4475 90.0926 66.4475 90.1237C67.505 90.4969 68.6247 91.0257 69.8688 91.7099C69.9932 91.7721 70.1177 91.8654 70.2421 91.9276C70.7397 92.2076 71.2374 92.4875 71.735 92.7985C73.6323 93.9493 75.5918 95.2868 77.5512 96.5931C80.2572 98.4281 82.9009 100.201 85.2959 101.538C87.7219 102.876 89.8991 103.716 91.7341 103.716C93.0716 103.716 94.1602 103.249 94.9688 102.347C95.8397 101.414 96.1508 100.17 95.933 98.677Z"
    fill="url(#paint0_linear_105_59)" />
  <path opacity="0.4"
    d="M66.3853 90.124C65.5144 89.813 64.7058 89.6575 64.0215 89.6575C60.6624 89.6575 55.2505 93.2654 49.9941 96.78C44.6444 100.326 39.6058 103.716 36.1222 103.716C34.847 103.716 33.8206 103.281 33.0742 102.441C32.1722 101.414 31.83 100.108 32.0789 98.584C32.2655 97.4643 32.7631 96.2202 33.5407 94.9449C45.2976 83.8412 59.0139 87.0448 66.3853 90.124Z"
    fill="#1D1D1B" />
  <path
    d="M127.866 78.1547C125.253 62.1678 88.3032 34.5485 74.7424 26.835C71.7565 25.0932 67.8998 24.1602 63.9808 24.1602C60.0618 24.1602 56.3917 25.0932 53.4058 26.835C43.9506 32.3713 12.9721 54.0189 3.0814 70.6278C1.58847 73.1783 0.530971 75.6665 0.157737 77.9059C-0.339909 80.954 0.344354 83.5666 2.14832 85.6194C3.64126 87.2989 5.69405 88.1698 8.24448 88.1698C15.2115 88.1698 25.2888 81.4516 35.9882 74.298C46.4388 67.2687 57.3248 60.0528 64.043 60.0528C65.4737 60.0528 67.0911 60.4261 68.7706 60.9859C68.8328 60.9859 68.895 60.9859 68.895 61.0481C71.01 61.7946 73.2494 62.8521 75.7377 64.2206C75.9865 64.345 76.2353 64.5317 76.4841 64.6561C77.4794 65.2159 78.4747 65.7758 79.47 66.3978C83.2646 68.6994 87.1835 71.3743 91.1025 73.9869C96.5144 77.6571 101.802 81.2028 106.592 83.8776C111.444 86.5525 115.798 88.232 119.468 88.232C122.143 88.232 124.32 87.2989 125.938 85.495C127.679 83.6288 128.302 81.1406 127.866 78.1547Z"
    fill="url(#paint1_linear_105_59)" />
  <path opacity="0.4"
    d="M68.7706 61.0478C67.0289 60.4257 65.4115 60.1147 64.043 60.1147C57.3248 60.1147 46.501 67.3306 35.9882 74.3598C25.2888 81.4513 15.2115 88.2317 8.24448 88.2317C5.69404 88.2317 3.64126 87.3608 2.14832 85.6813C0.344354 83.6285 -0.339909 81.0158 0.157737 77.9678C0.530971 75.7284 1.52626 73.2401 3.0814 70.6897C26.5952 48.4822 54.0279 54.8894 68.7706 61.0478Z"
    fill="#1D1D1B" />
  <defs>
    <linearGradient id="paint0_linear_105_59" x1="165.28" y1="145.12" x2="145.479" y2="175.267"
      gradientUnits="userSpaceOnUse">
      <stop offset="0.0137585" stop-color="#FFC61D" />
      <stop offset="1" stop-color="#EF6C00" />
    </linearGradient>
    <linearGradient id="paint1_linear_105_59" x1="266.56" y1="171.04" x2="226.958" y2="231.335"
      gradientUnits="userSpaceOnUse">
      <stop offset="0.0137585" stop-color="#FF9800" />
      <stop offset="1" stop-color="#EF6C00" />
    </linearGradient>
  </defs>
</svg>