<svg width="32" height="32" viewBox="0 0 32 32" fill="none" xmlns="http://www.w3.org/2000/svg">
  <path
    d="M23.9833 24.6692C23.6567 22.6709 19.0379 19.2185 17.3428 18.2543C16.9696 18.0366 16.4875 17.9199 15.9976 17.9199C15.5077 17.9199 15.049 18.0366 14.6757 18.2543C13.4938 18.9463 9.62151 21.6523 8.38518 23.7284C8.19856 24.0472 8.06637 24.3582 8.01972 24.6381C7.95751 25.0191 8.04304 25.3457 8.26854 25.6023C8.45516 25.8123 8.71176 25.9211 9.03056 25.9211C9.90144 25.9211 11.1611 25.0814 12.4985 24.1871C13.8048 23.3085 15.1656 22.4065 16.0054 22.4065C16.1842 22.4065 16.3864 22.4532 16.5963 22.5231C16.6041 22.5231 16.6119 22.5231 16.6119 22.5309C16.8763 22.6242 17.1562 22.7564 17.4672 22.9275C17.4983 22.943 17.5294 22.9664 17.5605 22.9819C17.6849 23.0519 17.8093 23.1219 17.9338 23.1996C18.4081 23.4873 18.8979 23.8217 19.3878 24.1483C20.0643 24.607 20.7252 25.0503 21.324 25.3846C21.9305 25.719 22.4748 25.9289 22.9335 25.9289C23.2679 25.9289 23.54 25.8123 23.7422 25.5868C23.9599 25.3535 24.0377 25.0425 23.9833 24.6692Z"
    fill="url(#paint0_linear_101_32)" />
  <path opacity="0.4"
    d="M16.5963 22.5312C16.3786 22.4535 16.1764 22.4146 16.0054 22.4146C15.1656 22.4146 13.8126 23.3166 12.4985 24.1952C11.1611 25.0817 9.90144 25.9292 9.03056 25.9292C8.71176 25.9292 8.45516 25.8204 8.26854 25.6104C8.04304 25.3538 7.95751 25.0272 8.01972 24.6462C8.06637 24.3663 8.19078 24.0553 8.38518 23.7365C11.3244 20.9605 14.7535 21.7614 16.5963 22.5312Z"
    fill="#1D1D1B" />
  <path
    d="M31.9665 19.5387C31.3134 15.542 22.0758 8.63713 18.6856 6.70875C17.9391 6.27331 16.9749 6.04004 15.9952 6.04004C15.0155 6.04004 14.0979 6.27331 13.3515 6.70875C10.9876 8.09283 3.24303 13.5047 0.770351 17.657C0.397117 18.2946 0.132743 18.9166 0.0394341 19.4765C-0.0849773 20.2385 0.0860885 20.8916 0.53708 21.4048C0.910314 21.8247 1.42351 22.0425 2.06112 22.0425C3.80288 22.0425 6.32221 20.3629 8.99706 18.5745C11.6097 16.8172 14.3312 15.0132 16.0108 15.0132C16.3684 15.0132 16.7728 15.1065 17.1927 15.2465C17.2082 15.2465 17.2238 15.2465 17.2238 15.262C17.7525 15.4487 18.3124 15.713 18.9344 16.0552C18.9966 16.0863 19.0588 16.1329 19.121 16.164C19.3699 16.304 19.6187 16.4439 19.8675 16.5995C20.8161 17.1749 21.7959 17.8436 22.7756 18.4967C24.1286 19.4143 25.4505 20.3007 26.6479 20.9694C27.8609 21.6381 28.9495 22.058 29.8671 22.058C30.5358 22.058 31.0801 21.8247 31.4844 21.3737C31.9199 20.9072 32.0754 20.2851 31.9665 19.5387Z"
    fill="url(#paint1_linear_101_32)" />
  <path opacity="0.4"
    d="M17.1927 15.2617C16.7572 15.1062 16.3529 15.0284 16.0107 15.0284C14.3312 15.0284 11.6252 16.8324 8.99705 18.5897C6.32221 20.3626 3.80288 22.0577 2.06112 22.0577C1.42351 22.0577 0.910314 21.84 0.53708 21.4201C0.0860884 20.9069 -0.0849773 20.2537 0.0394341 19.4917C0.132743 18.9318 0.381566 18.3098 0.770351 17.6722C6.64879 12.1203 13.507 13.7221 17.1927 15.2617Z"
    fill="#1D1D1B" />
  <defs>
    <linearGradient id="paint0_linear_101_32" x1="41.32" y1="36.2799" x2="36.3697" y2="43.8167"
      gradientUnits="userSpaceOnUse">
      <stop offset="0.0137585" stop-color="#FFC61D" />
      <stop offset="1" stop-color="#EF6C00" />
    </linearGradient>
    <linearGradient id="paint1_linear_101_32" x1="66.64" y1="42.76" x2="56.7395" y2="57.8337"
      gradientUnits="userSpaceOnUse">
      <stop offset="0.0137585" stop-color="#FF9800" />
      <stop offset="1" stop-color="#EF6C00" />
    </linearGradient>
  </defs>
</svg>