<svg width="64" height="64" viewBox="0 0 64 64" fill="none" xmlns="http://www.w3.org/2000/svg">
  <path
    d="M47.9665 49.3385C47.3134 45.3418 38.0758 38.4369 34.6856 36.5086C33.9391 36.0731 32.9749 35.8398 31.9952 35.8398C31.0155 35.8398 30.0979 36.0731 29.3515 36.5086C26.9876 37.8926 19.243 43.3045 16.7704 47.4568C16.3971 48.0944 16.1327 48.7164 16.0394 49.2763C15.915 50.0383 16.0861 50.6915 16.5371 51.2047C16.9103 51.6245 17.4235 51.8423 18.0611 51.8423C19.8029 51.8423 22.3222 50.1627 24.9971 48.3743C27.6097 46.617 30.3312 44.813 32.0108 44.813C32.3684 44.813 32.7728 44.9063 33.1927 45.0463C33.2082 45.0463 33.2238 45.0463 33.2238 45.0618C33.7525 45.2485 34.3124 45.5128 34.9344 45.855C34.9966 45.8861 35.0588 45.9327 35.121 45.9638C35.3699 46.1038 35.6187 46.2437 35.8675 46.3993C36.8161 46.9747 37.7959 47.6434 38.7756 48.2965C40.1286 49.2141 41.4505 50.1005 42.6479 50.7692C43.8609 51.4379 44.9495 51.8578 45.8671 51.8578C46.5358 51.8578 47.0801 51.6245 47.4844 51.1735C47.9199 50.707 48.0754 50.0849 47.9665 49.3385Z"
    fill="url(#paint0_linear_105_51)" />
  <path opacity="0.4"
    d="M33.1927 45.0615C32.7572 44.906 32.3529 44.8282 32.0107 44.8282C30.3312 44.8282 27.6252 46.6322 24.9971 48.3895C22.3222 50.1624 19.8029 51.8575 18.0611 51.8575C17.4235 51.8575 16.9103 51.6398 16.5371 51.2199C16.0861 50.7067 15.915 50.0535 16.0394 49.2915C16.1327 48.7316 16.3816 48.1096 16.7704 47.472C22.6488 41.9201 29.507 43.5219 33.1927 45.0615Z"
    fill="#1D1D1B" />
  <path
    d="M63.933 39.0774C62.6267 31.0839 44.1516 17.2743 37.3712 13.4175C35.8783 12.5466 33.9499 12.0801 31.9904 12.0801C30.0309 12.0801 28.1959 12.5466 26.7029 13.4175C21.9753 16.1857 6.48606 27.0094 1.5407 35.3139C0.794234 36.5891 0.265485 37.8332 0.0788683 38.9529C-0.169955 40.477 0.172177 41.7833 1.07416 42.8097C1.82063 43.6495 2.84702 44.0849 4.12224 44.0849C7.60576 44.0849 12.6444 40.7258 17.9941 37.149C23.2194 33.6344 28.6624 30.0264 32.0215 30.0264C32.7369 30.0264 33.5455 30.213 34.3853 30.493C34.4164 30.493 34.4475 30.493 34.4475 30.5241C35.505 30.8973 36.6247 31.4261 37.8688 32.1103C37.9932 32.1725 38.1177 32.2658 38.2421 32.328C38.7397 32.608 39.2374 32.8879 39.735 33.1989C41.6323 34.3497 43.5918 35.6871 45.5512 36.9935C48.2572 38.8285 50.9009 40.6014 53.2959 41.9388C55.7219 43.2762 57.8991 44.116 59.7341 44.116C61.0716 44.116 62.1602 43.6495 62.9688 42.7475C63.8397 41.8144 64.1508 40.5703 63.933 39.0774Z"
    fill="url(#paint1_linear_105_51)" />
  <path opacity="0.4"
    d="M34.3853 30.5244C33.5144 30.2134 32.7058 30.0578 32.0215 30.0578C28.6624 30.0578 23.2505 33.6658 17.9941 37.1804C12.6444 40.7261 7.60576 44.1163 4.12224 44.1163C2.84702 44.1163 1.82063 43.6809 1.07416 42.8411C0.172177 41.8147 -0.169955 40.5084 0.0788683 38.9844C0.265485 37.8647 0.763131 36.6205 1.5407 35.3453C13.2976 24.2416 27.0139 27.4452 34.3853 30.5244Z"
    fill="#1D1D1B" />
  <defs>
    <linearGradient id="paint0_linear_105_51" x1="82.64" y1="72.5598" x2="72.7395" y2="87.6335"
      gradientUnits="userSpaceOnUse">
      <stop offset="0.0137585" stop-color="#FFC61D" />
      <stop offset="1" stop-color="#EF6C00" />
    </linearGradient>
    <linearGradient id="paint1_linear_105_51" x1="133.28" y1="85.5201" x2="113.479" y2="115.667"
      gradientUnits="userSpaceOnUse">
      <stop offset="0.0137585" stop-color="#FF9800" />
      <stop offset="1" stop-color="#EF6C00" />
    </linearGradient>
  </defs>
</svg>